<svg xmlns="http://www.w3.org/2000/svg" viewBox="0 0 100 100" width="100" height="100">
  <defs>
    <linearGradient id="fishGrad" x1="0%" y1="0%" x2="100%" y2="100%">
      <stop offset="0%" stop-color="#38bdf8" />
      <stop offset="50%" stop-color="#3b82f6" />
      <stop offset="100%" stop-color="#1d4ed8" />
    </linearGradient>
  </defs>
  <circle cx="50" cy="50" r="46" fill="url(#fishGrad)" />
  <path d="M72 50 C65 38 48 34 32 40 C26 42 22 46 18 50 C22 54 26 58 32 60 C48 66 65 62 72 50 Z" fill="#ffffff" opacity="0.95" />
  <circle cx="34" cy="46" r="3" fill="#1e3a8a" />
  <path d="M70 50 L84 38 L80 50 L84 62 Z" fill="#ffffff" opacity="0.9" />
  <path d="M48 41 C52 35 58 33 62 34 C58 38 56 42 54 44 Z" fill="#ffffff" opacity="0.8" />
</svg>
